<svg width="38" height="36" viewBox="0 0 38 36" fill="none" xmlns="http://www.w3.org/2000/svg">
<path d="M22.3979 4.5373L22.3982 4.53696C23.1494 3.72062 24.0323 3.08273 24.9916 2.65097C25.9504 2.21945 26.9715 2 27.9982 2C29.0248 2 30.0459 2.21945 31.0047 2.65097C31.964 3.08273 32.8469 3.72062 33.5982 4.53696L33.5988 4.53765C34.3506 5.35391 34.9549 6.33186 35.3698 7.41941C35.7847 8.5071 36 9.67794 36 10.8637C36 12.0495 35.7847 13.2204 35.3698 14.3081C34.9549 15.3956 34.3506 16.3736 33.5988 17.1898L33.5985 17.1902L31.6715 19.2832L18.9995 33.0472L6.32754 19.2832L4.40056 17.1902C2.87981 15.5384 2 13.2652 2 10.8637C2 8.46231 2.87981 6.18911 4.40056 4.5373C5.9162 2.89105 7.93475 2.00106 10.0009 2.00106C12.067 2.00106 14.0855 2.89105 15.6012 4.5373L17.5281 6.63035C17.9068 7.04167 18.4404 7.2757 18.9995 7.2757C19.5586 7.2757 20.0922 7.04167 20.4709 6.63035L22.3979 4.5373Z" fill="#FF5F69"/>
<path d="M22.3979 4.5373L22.3982 4.53696C23.1494 3.72062 24.0323 3.08273 24.9916 2.65097C25.9504 2.21945 26.9715 2 27.9982 2C29.0248 2 30.0459 2.21945 31.0047 2.65097C31.964 3.08273 32.8469 3.72062 33.5982 4.53696L33.5988 4.53765C34.3506 5.35391 34.9549 6.33186 35.3698 7.41941C35.7847 8.5071 36 9.67794 36 10.8637C36 12.0495 35.7847 13.2204 35.3698 14.3081C34.9549 15.3956 34.3506 16.3736 33.5988 17.1898L33.5985 17.1902L31.6715 19.2832L18.9995 33.0472L6.32754 19.2832L4.40056 17.1902C2.87981 15.5384 2 13.2652 2 10.8637C2 8.46231 2.87981 6.18911 4.40056 4.5373C5.9162 2.89105 7.93475 2.00106 10.0009 2.00106C12.067 2.00106 14.0855 2.89105 15.6012 4.5373L17.5281 6.63035C17.9068 7.04167 18.4404 7.2757 18.9995 7.2757C19.5586 7.2757 20.0922 7.04167 20.4709 6.63035L22.3979 4.5373Z" stroke="white" stroke-width="4" stroke-linecap="round" stroke-linejoin="round"/>
<path d="M22.3979 4.5373L22.3982 4.53696C23.1494 3.72062 24.0323 3.08273 24.9916 2.65097C25.9504 2.21945 26.9715 2 27.9982 2C29.0248 2 30.0459 2.21945 31.0047 2.65097C31.964 3.08273 32.8469 3.72062 33.5982 4.53696L33.5988 4.53765C34.3506 5.35391 34.9549 6.33186 35.3698 7.41941C35.7847 8.5071 36 9.67794 36 10.8637C36 12.0495 35.7847 13.2204 35.3698 14.3081C34.9549 15.3956 34.3506 16.3736 33.5988 17.1898L33.5985 17.1902L31.6715 19.2832L18.9995 33.0472L6.32754 19.2832L4.40056 17.1902C2.87981 15.5384 2 13.2652 2 10.8637C2 8.46231 2.87981 6.18911 4.40056 4.5373C5.9162 2.89105 7.93475 2.00106 10.0009 2.00106C12.067 2.00106 14.0855 2.89105 15.6012 4.5373L17.5281 6.63035C17.9068 7.04167 18.4404 7.2757 18.9995 7.2757C19.5586 7.2757 20.0922 7.04167 20.4709 6.63035L22.3979 4.5373Z" stroke="#FF5F69" stroke-width="4" stroke-linecap="round" stroke-linejoin="round"/>
</svg>
