<?xml version="1.0" ?><svg enable-background="new 0 0 52 52" id="Layer_1" version="1.1" viewBox="0 0 52 52" xml:space="preserve" xmlns="http://www.w3.org/2000/svg" xmlns:xlink="http://www.w3.org/1999/xlink"><g><path d="M27.0602417,4.4697876V2.5h-2v1.9667969C12.2644653,4.9630737,2,15.5280762,2,28.4429321h2   c0-1.3800049,0.5599976-2.6300049,1.4700317-3.5299683C6.3800049,24.0029297,7.6199951,23.4429321,9,23.4429321   c3.2700195,0,4.539978,2.8500366,4.5900269,2.960022l0.8999634,2.1300049l0.9400024-2.1099854   C16.2299805,24.6129761,18.0200195,23.4429321,20,23.4429321c2.7600098,0,5,2.2400513,5,5h0.0602417v17.0072632   c0,2.2333984,1.7944336,4.0498047,4,4.0498047s4-1.8164063,4-4.0498047h-2c0,1.1298828-0.8969727,2.0498047-2,2.0498047   s-2-0.9199219-2-2.1074219V27.8483276C27.3589478,25.3718262,29.4529419,23.4429321,32,23.4429321   c3.2700195,0,4.539978,2.8500366,4.5900269,2.960022l0.8999634,2.1300049l0.9400024-2.1099854   C39.2299805,24.6129761,41.0200195,23.4429321,43,23.4429321c2.75,0,4.9799805,2.2200317,5,4.960022v0.039978h2v-0.0999756   C49.9415894,15.5082397,39.7700195,5.0254517,27.0602417,4.4697876z" fill="#3A92CC"/></g></svg>